<?xml version="1.0" encoding="UTF-8"?>
<!DOCTYPE svg PUBLIC "-//W3C//DTD SVG 1.1//EN" "http://www.w3.org/Graphics/SVG/1.1/DTD/svg11.dtd">
<svg xmlns="http://www.w3.org/2000/svg" version="1.1" width="512px" height="512px" style="shape-rendering:geometricPrecision; text-rendering:geometricPrecision; image-rendering:optimizeQuality; fill-rule:evenodd; clip-rule:evenodd" xmlns:xlink="http://www.w3.org/1999/xlink">
<g><path style="opacity:1" fill="#fefefe" d="M 75.5,-0.5 C 195.5,-0.5 315.5,-0.5 435.5,-0.5C 477.167,8.5 502.5,33.8333 511.5,75.5C 511.5,184.833 511.5,294.167 511.5,403.5C 505.528,441.228 484.528,466.728 448.5,480C 443.191,481.129 437.857,482.129 432.5,483C 314.5,483.667 196.5,483.667 78.5,483C 46.1212,478.561 22.6212,461.727 8,432.5C 4.21514,423.323 1.38181,413.99 -0.5,404.5C -0.5,294.833 -0.5,185.167 -0.5,75.5C 8.5,33.8333 33.8333,8.5 75.5,-0.5 Z"/></g>
<g><path style="opacity:1" fill="#282d44" d="M 206.5,103.5 C 260.513,103.201 314.513,103.535 368.5,104.5C 371.096,129.821 371.096,155.154 368.5,180.5C 329.506,181.785 290.506,181.785 251.5,180.5C 251.762,198.168 252.095,215.835 252.5,233.5C 282.866,233.19 313.199,234.024 343.5,236C 346.79,237.298 348.29,239.798 348,243.5C 348.686,263.844 348.52,284.177 347.5,304.5C 316.514,305.437 285.514,305.77 254.5,305.5C 255.247,332.16 255.58,358.827 255.5,385.5C 226.34,388.538 197.173,389.205 168,387.5C 164.667,293.528 163.334,199.528 164,105.5C 178.265,104.841 192.431,104.175 206.5,103.5 Z"/></g>
<g><path style="opacity:0.993" fill="#b5b5b5" d="M 511.5,403.5 C 511.5,414.167 511.5,424.833 511.5,435.5C 502.502,477.165 477.169,502.498 435.5,511.5C 315.5,511.5 195.5,511.5 75.5,511.5C 33.8333,502.5 8.5,477.167 -0.5,435.5C -0.5,425.167 -0.5,414.833 -0.5,404.5C 1.38181,413.99 4.21514,423.323 8,432.5C 22.6212,461.727 46.1212,478.561 78.5,483C 196.5,483.667 314.5,483.667 432.5,483C 437.857,482.129 443.191,481.129 448.5,480C 484.528,466.728 505.528,441.228 511.5,403.5 Z"/></g>
</svg>
