<?xml version="1.0" encoding="UTF-8"?>
<!DOCTYPE svg PUBLIC "-//W3C//DTD SVG 1.1//EN" "http://www.w3.org/Graphics/SVG/1.1/DTD/svg11.dtd">
<!-- Creator: CorelDRAW 2021 (64-Bit) -->
<svg xmlns="http://www.w3.org/2000/svg" xml:space="preserve" width="882px" height="453px" version="1.1" style="shape-rendering:geometricPrecision; text-rendering:geometricPrecision; image-rendering:optimizeQuality; fill-rule:evenodd; clip-rule:evenodd"
viewBox="0 0 556.63 285.87"
 xmlns:xlink="http://www.w3.org/1999/xlink"
 xmlns:xodm="http://www.corel.com/coreldraw/odm/2003">
 <defs>
  <style type="text/css">
   <![CDATA[
    .fil0 {fill:#373435}
   ]]>
  </style>
 </defs>
 <g id="Capa_x0020_1">
  <metadata id="CorelCorpID_0Corel-Layer"/>
  <g id="_1553627735008">
   <path class="fil0" d="M300.23 25.55c-0.17,-0.1 -0.11,0.02 -0.09,0.22l2.06 1.75c1.45,-4.37 4.99,0.82 12.18,-8.93 2.29,-3.11 0.99,-1.44 4.49,-3.29 -1.06,-4.42 -0.95,-5.93 0,-10l-5.81 -5.3c-3.59,1.53 -6.49,4.84 -10.8,5.6 -2.38,0.43 -1.39,1.58 -2.28,-1.41 -1.81,1.33 -4.24,4.71 -5.56,6.67 -10.8,0 -17.51,4.32 -27.91,4.75 -2.34,0.09 -2.25,0.38 -5.38,0.93 -6.47,1.13 -9.58,-1.61 -15.96,0.61 -0.56,0.19 -2.14,0.97 -2.32,1.02 -15.02,4.56 -13.74,0.59 -21.51,1.74l-11.27 2.18c-6.01,0.77 -14.79,0.35 -22.3,2.1 -3.51,-2.34 -6.01,-5.78 -11.12,-3.33l-3.09 -3.57c-4.25,2.95 -6.35,7.97 -10.24,11.34 -5.28,-1.4 -3.45,-0.13 -9.06,-0.84 -18.56,-2.35 -18.33,4.24 -36.58,2l-18.8 1.07c-5.77,0 -1.53,-1.63 -8.62,0.21l-14.91 1.14c-11.03,-0.98 -25.31,2.22 -34.64,2.41 -3.41,0.08 -5.27,-0.06 -8.46,0.66 -7.04,1.59 -12.42,-0.62 -21.77,1.61 -3.77,0.9 -6.33,0.63 -10.48,0.63 1.26,4.71 5.09,11.36 7.71,15.62 7.61,12.42 23.41,5.6 30.03,5.58 0.94,0 2.48,0.3 2.49,0.3 3.25,0.15 -1.64,-0.49 2.9,-0.06l20.26 0.63c8,1.03 5.05,1.83 13.07,-0.12 6.95,-1.69 11.86,1.18 20.13,0.21 3.22,-0.38 3.17,-1.36 7.83,-1.11 3.19,0.18 3.98,0.92 7.35,1.7 5.62,1.3 2.9,0.46 6.73,-0.89 4.87,-1.71 15.82,-3.48 21.75,-2.37 7.07,1.32 -0.31,14.31 -1.39,18.27l-4.64 13.14c-0.92,3.56 -2.48,10.15 -5.77,12 -0.4,0.22 -6.35,2.07 -6.44,2.08 -2.01,0.11 -4.38,-1.65 -6.46,-1.65l-23.12 3.83c-5.22,-0.16 -5.94,-2.22 -10.38,-0.72 -5.63,1.9 -3.71,3.16 -9.83,0.22 -8.84,5.92 -8.38,-0.8 -12.22,4.45 2.49,0.9 3.27,2.68 4.24,4.64 2.15,4.36 0.73,2.67 5.76,4.25 3.72,1.16 3.3,1.98 6.79,3.28 3.12,1.16 12.38,0.12 16.8,0.9 2.79,0.49 6.72,1.37 8.65,1.43 4.18,0.15 4.07,-0.9 8.87,-1.18 14.38,-0.86 6.35,2.43 2.41,9.1 -1.19,2.02 -0.87,2.08 -1.82,3.73 -3.2,5.58 -4.39,6.34 -6.38,12.5l-8.8 14.54c-2.68,4.51 -5.27,3.45 -5.41,10.14l3.33 0c1.08,-4.65 6.32,-11.98 10,-14.45 2.89,5.15 0.33,7.28 -2.92,11.53l-5.97 10.69c-5.14,8.25 -7.17,18.19 -12.66,26.23 -1.39,2.03 -1.42,1.09 -2.39,3.17l-4.74 11.93c-2.5,4.59 -4.53,10.52 -7.7,14.51 -3.44,4.33 -1.46,3.07 -2.95,8.17l-15.33 29.11c-2.08,3.06 -3.34,3.56 -4.23,6.88 10.51,0 10.88,-6.55 15.34,-13.55l14.37 -25.62c7.45,-9.69 8.6,-18.01 18.92,-29.97 2.32,-2.69 5.7,-14.32 10.06,-19.94l3.4 -6.74c0.06,-0.16 0.25,-0.44 0.32,-0.61 0.09,-0.2 0.28,-0.49 0.37,-0.7 3.57,-8.18 7.77,-14.42 12.99,-21.54l13.55 -26.44c2.43,-7.36 5.55,-13.62 12.41,-17.59 5.02,-2.9 15.08,-3.3 21.83,-8.17 1.8,-1.3 3.39,-3.02 5.8,-4.19 7.46,-3.64 9.52,-1.6 9.52,-12.71 -5.93,2.85 -12.59,1.39 -18.69,2.42 -1.8,0.3 -4.41,1.46 -6.86,2.03 -2.52,-10.8 7.16,-17.84 10.41,-27.37 8.84,-25.93 24.66,-14.19 48.83,-25.61 6.7,-3.17 14.93,-1.04 21.97,-2.47 6.61,-1.34 5.02,-2.24 9.49,-2.86l16.52 -2c3.48,0.11 2.73,-0.2 5.54,-1.35 7.07,-2.89 17.1,-8.6 23.89,-5l4.7 -4.2z"/>
   <path class="fil0" d="M182.21 134.18c-4.2,0 -2.18,-3.5 -5.56,1.11 2.94,0.78 0.92,-0.09 3.34,1.11 -1.38,5.92 -0.85,6.53 2.22,11.11l-2.22 0c3.05,4.57 3.51,6.9 -1.11,14.46 -0.87,1.43 -4.49,6.25 -5.95,7.37l-8.75 4.59c-3.68,1.37 -1.1,-0.26 -4.67,1.99 -2.05,1.29 -2.27,1.57 -3.97,2.7 3.12,4.66 2.02,1.74 8.89,3.34 0,8.24 -8,15.04 -10.45,22.88 -3.25,10.44 -0.82,3.42 -5.79,10.87 -3.39,5.1 -1.45,7.81 -9.31,8.47 0,8.92 1.07,10.63 -3.23,14.54l-2.33 2.12c0.99,4.24 1.12,4.42 1.12,10 5.84,-1.36 5.12,-2.71 9.71,-6.95l3.02 -2.53c0.13,-0.1 0.4,-0.35 0.6,-0.52 4.8,1.12 7.06,0.81 11.47,2.99 5.03,2.48 5.76,0.34 11.86,0.34 6.89,0 3.3,3.75 14.22,0.9 2.74,-0.72 2.9,-1.49 6.68,-2.3 4.23,-0.91 2.55,0.42 6.14,-0.5 8.58,-2.18 4.38,2.15 12.09,1.09 7.11,-0.98 6.34,-2.52 15.31,-2.52 2.91,-1.95 4.61,-2.76 7.78,-4.44l-0.67 -3.54c-0.04,-0.11 -0.18,-0.35 -0.23,-0.46 -3.52,-8.6 0.76,-7.11 -13.55,-7.11 -6.06,0 -0.85,0.26 -5.2,1.5l-13.7 -0.37c-4.43,-0.32 -2.2,-0.83 -6.63,-1.15 -5.09,-0.37 -8.88,0.58 -13.84,-0.61 -13.56,-3.28 -12.49,2.51 -18.01,-3.1l-1 -1.21c-0.11,-0.12 -0.33,-0.42 -0.5,-0.62 2.35,-4.44 3.23,-5.37 6.38,-9.17 1.75,-2.09 1.48,-2.41 2.94,-4.83 6.36,-10.53 4.65,-9.77 22.01,-11.1l12.99 -0.5c9.97,-2.02 10.4,1.22 23.73,-1.97 6.43,-1.54 15.81,-1.46 21.06,-3.44 2.94,-1.1 -1.61,-0.72 4.22,-1.21 -0.08,-3.38 -0.51,-4.05 -1.12,-6.66 -11.02,-0.25 -4.32,-6.67 -16.66,-6.67 -6.87,0 -3.66,2.02 -11.1,0.01 -5.36,-1.45 -6.35,-1.25 -12.87,-0.72 -6.86,0.55 -3.29,-3.11 -13.42,-4.35 -8.08,-0.99 -1.25,-6.23 1.94,-11.51 1.93,-3.2 -1.75,-1.16 10.11,-4.33 4.2,-1.13 7.05,-2.32 11.3,-3.14 2.82,-0.55 3.63,-0.19 6.28,-0.39 4.68,-0.34 2.62,-1.11 5.98,-1.83 5.99,-1.28 -0.36,0.51 5.09,0.55l34.54 -8.65c7.17,-1.93 -4.38,1.65 1.81,-0.42 0.22,-0.07 0.58,-0.29 0.75,-0.36 0.17,-0.06 0.47,-0.27 0.7,-0.41 7.24,4.85 5.35,1.23 8.05,0.71 1.04,-0.2 1.43,0.17 4.17,0.4l2.28 -4.41c-12.85,-6.8 -7.02,-7 -5.61,-12.26 -5.76,2.77 -2.54,0 -6.67,0 -5.71,0 -1.14,1 -5.55,0.98 -2.56,-0.01 -2.34,-0.85 -6.63,-1.02 -16.87,-0.67 -24.34,-1.11 -39.85,2.54l-11.3 0.82c-5.41,0.27 -9.57,2.52 -12.01,2.69 -10.16,0.67 -7.74,3.16 -16.15,3.37 -3.55,0.09 -4.04,1.73 -5.17,1.73z"/>
   <path class="fil0" d="M301.09 184.18c0,-2.96 2.76,-4.85 4.03,-5.97 4.54,-4 2.97,-4.68 6.62,-10.05 1.7,-2.51 1.36,-1.72 3,-3.66 3.9,-4.66 1.53,-8.38 6.58,-12.31 4.99,-3.87 2.15,2.23 6.94,-6.39 3.11,-5.62 5.48,-3.33 13.24,-13.42 2.92,-3.8 3.38,-1.68 6.25,-5.98 2.77,1.33 8.56,1.37 12.22,2.23 0,7.05 0.9,7.56 -1.98,12.46 -2.85,4.86 -4.35,11.75 -11.03,17.85 -2.2,2 -2.3,1.51 -4.47,3.32l-8.1 6.34c-3.41,2.76 -0.86,1.17 -3.06,3.6l-8.97 5.47c-5.65,2.5 -21.27,18.29 -21.27,6.51zm18.89 -55.55c-7.61,11.36 -5.58,10.65 -9.08,16.47 -0.91,1.51 -1.78,2.4 -2.86,3.81 -1.63,2.13 -1.29,2.15 -2.51,4.16 -1.84,3.05 -3.93,4 -6.22,7.1l-15.78 24.22c-1.41,1.93 0.09,-0.26 -1.74,1.59 -2.73,2.77 -7.56,9.34 -8.89,13.34 -1.74,5.23 -4.36,8.04 -7.38,12.62l-2.36 4.31c-1.96,3.73 -5.87,8.05 -9.86,16.8 -1.43,3.15 -1.96,6.4 -3.63,9.7 -2.89,5.72 -6.66,4.2 -7.46,12.54 -0.32,3.34 0.72,2.65 -1.12,5.55l0.93 1.3c0.2,-0.18 1.85,-3.95 2.98,-5.17 1.18,-1.28 2.55,-1.73 4.1,-3.68 1.52,-1.9 1.55,-2.29 3.38,-4.4l22.77 -31.67c7.31,-7.21 -0.65,-2.35 11.91,-14.75 7.42,-7.31 1.01,-5.92 10.6,-10.51 5.4,7.78 0,6.64 0,23.33 7.69,5.15 0.98,2.6 10.67,5.99 4.42,1.55 6.39,4.75 8.24,8.43l6.63 17.81c1.17,4.16 0.37,3.37 3.34,5.54 -0.07,-3.34 -0.42,-6.05 -2.22,-8.89 1.71,-2.55 2.13,-2.23 2.22,-6.66l13.52 24.26c0.85,1.67 0.91,1.83 2.04,3.51 2.13,-1.52 1.2,0.63 -0.86,-8.02 -0.94,-3.92 -1.15,-3.53 -2.48,-6.41 -1.35,-2.92 -4.45,-10.52 -4.23,-14.22 0.45,-7.51 -2.99,-2.9 -7.52,-18.47 -4.24,-14.58 -1.81,-4.78 -1.58,-15.09 5.24,-0.44 5.9,-2.37 10.01,-4.44l24.73 -19.71c6.69,-6.8 0.11,-3.94 10.85,-11.37l8.6 -11.4c0.16,-0.29 0.59,-1.18 0.73,-1.49 2.84,-6.07 5.17,-18.66 0.35,-24.64 -8.36,-10.36 5.03,-4.15 -13.48,-16.51 -0.94,-0.62 -2.17,-1.47 -2.68,-1.76 -10.15,-5.64 -16.35,-12.01 -26.89,-12.01 -4.88,0 -5.22,2.47 -10.07,3.26 -15.06,2.42 -7.7,7.8 -7.7,25.63z"/>
   <path class="fil0" d="M419.97 173.07c0.45,-5.41 2.9,-9.95 6.41,-13.59 3.39,-3.5 4.41,-9.06 6.9,-13.1 1.91,-3.11 2.81,-2.24 4.84,-5.16l4.06 -5.94c2.58,-4.21 4.85,-8.38 8.9,-11.1l2.58 1.87c0.1,-0.22 0.5,0.23 0.75,0.35 -0.28,12.62 -4.19,17.85 -13.05,28.06 -3.47,3.99 -5.14,7.11 -9.6,10.39 -8.76,6.44 -5.62,7.71 -11.79,8.22zm8.89 -67.77c-6.97,3.68 -2.48,2.89 -7.78,3.33 0,5.58 -0.97,4.96 -1.15,9.95 -0.56,15.17 2.26,9.41 -4.23,18 -5.62,7.45 -6.72,15.76 -10.56,22.77l-7.57 14.65c-1.22,3.09 -1.37,4.82 -3.17,7.94l-11.09 22.24c-1.84,3.61 -3.02,4.05 -4.46,6.65l-14.83 29.49c-0.86,3.27 -0.57,5.16 0.4,7.19 5.84,-1.56 7.95,-6.88 13.32,-14.46 2.02,-2.85 1.8,-3.42 5.57,-4.43 0.16,-7.16 3.53,-9.05 5.91,-14.08 1.47,-3.13 1.04,-3.97 3.55,-6.45 4.39,-4.33 20.06,-25.69 16.14,-10.63 -1.5,5.77 -3.37,20.86 -0.69,26.24 5.32,10.66 27.37,20.23 28.57,21.43 3.47,3.47 -0.8,3.33 6.51,3.49 -0.98,-11.8 -5.93,-12.54 -8.18,-16.26l-7.13 -9.54c-3.51,-3.64 -1.31,-2.78 -3.34,-5.54 -2.49,-3.36 -2.13,-0.48 -4.2,-3.58 -0.42,-0.62 -2.14,-5.12 -2.7,-6.19 6.1,-12.71 0.37,-0.79 11.55,-11.78l13.99 -10.45c5.72,-3.08 1.62,0.93 6.95,-5.28 3.6,-4.2 7.88,-4.28 10.67,-9.32 3.09,-5.56 2.4,-1.38 7.51,-9.15l12.66 -19.57c-3.82,-5.7 -1.52,-7.73 -9.31,-20.7l-3.1 -3.56c-2.7,-1.68 -5.96,-1.95 -9.07,-3.15 -3.08,-1.18 -5.48,-2.5 -8.31,-3.91 -1.04,-0.52 -2.65,-1.22 -3.98,-1.65 -1.75,-0.57 -4.18,-0.9 -4.31,-0.94 -10.68,-2.92 -8.76,-10.44 -11.92,-12.75 -3.51,2.57 -2.22,4.03 -2.22,10z"/>
   <path class="fil0" d="M476.63 230.84c0,-9.44 3.32,-18.97 8.99,-25.46 7.52,-8.61 -2.4,-1.88 6.65,-13.34l3.64 -4.14c4.02,-6.66 2.94,-3.77 7.67,-8.99 0.53,-0.59 1.97,-2.45 1.98,-2.47l18.64 -8.02c8.17,-2.04 1.95,-5.35 15.76,-5.35 2.38,4.96 3.34,13.62 3.34,21.11 0,5.9 -3.04,8.39 -4.99,15.29 -2.35,8.34 0.51,8.35 -1.8,13.48 -1.17,2.6 -1.39,1.43 -2.5,4.16 -2.26,5.57 0.56,8.59 -10.99,20.12 -2.21,2.21 -4.8,4.37 -6.72,6.61l-4.11 8.11c-10.04,-4.81 -7.18,10 -21.11,10 -1.29,-4.81 -2.76,-4.69 -5.28,-6.94 -5.83,-5.24 -9.17,-15.93 -9.17,-24.17zm-4.44 -6.66c0,3.33 -2.07,4.03 0.66,13.78l3.11 13.56c3.8,12.72 -5.18,16.05 0.67,27.1 0.29,0.55 2.73,4.25 3.17,4.61 9.89,8.28 32.31,-5.59 32.47,-5.64 0.36,-0.11 4.03,-0.14 5.92,-2.97 1.47,-2.18 -0.14,-0.9 1.36,-3.09 0.86,-1.25 2.28,-1.6 3.78,-3.99 2.34,-3.75 2.77,-9.95 9.11,-16.44 7.26,-7.43 10.13,-18.8 12.92,-29.39 1.41,-5.35 0.3,-2.61 0.24,-6.47l7.29 -27.1c3.98,-10.31 -4.01,-9.06 3.74,-20.63l-1.18 -10.05c0.7,-5.99 -0.31,-0.94 1.18,-3.28 -1.74,-2.59 -1.82,-3.15 -3.18,-5.71 -1.08,-2.02 -0.42,-0.99 -1.94,-2.51 -1.66,-1.66 -1.14,-0.62 -2.66,-2.89l-3.2 2.38c-4.47,-6.58 -7.24,-7.32 -10.94,-10.46 -2.79,-2.38 -0.63,-1.93 -4.75,-3.03 -2.14,8.02 -21.43,13.45 -27.5,20.35l-20.04 26.54c-4.94,6.43 -2.45,1.72 -6.76,13.24 -4.55,12.12 -1.05,10.39 -3,17.01 -1.14,3.92 -2.27,3.58 -2.03,6.69 0.31,4 1.56,5.05 1.56,8.39z"/>
  </g>
 </g>
</svg>
